<svg width="271" height="64" viewBox="0 0 271 64" fill="none" xmlns="http://www.w3.org/2000/svg">
<rect width="267" height="64" rx="18" fill="#A940FF"/>
<path d="M13.1985 24V13.0909H14.8445V17.8317H20.283V13.0909H21.9343V24H20.283V19.2433H14.8445V24H13.1985ZM24.0535 24V15.8182H25.6462V24H24.0535ZM24.8578 14.5558C24.5808 14.5558 24.3429 14.4634 24.144 14.2788C23.9487 14.0906 23.8511 13.8668 23.8511 13.6076C23.8511 13.3448 23.9487 13.1211 24.144 12.9364C24.3429 12.7482 24.5808 12.6541 24.8578 12.6541C25.1348 12.6541 25.371 12.7482 25.5663 12.9364C25.7651 13.1211 25.8646 13.3448 25.8646 13.6076C25.8646 13.8668 25.7651 14.0906 25.5663 14.2788C25.371 14.4634 25.1348 14.5558 24.8578 14.5558ZM29.647 13.0909L29.5085 20.8626H28.033L27.8945 13.0909H29.647ZM28.7734 24.1012C28.4787 24.1012 28.2265 23.9982 28.017 23.7923C27.8075 23.5827 27.7045 23.3306 27.7081 23.0359C27.7045 22.7447 27.8075 22.4961 28.017 22.2901C28.2265 22.0806 28.4787 21.9759 28.7734 21.9759C29.0611 21.9759 29.3096 22.0806 29.5192 22.2901C29.7287 22.4961 29.8352 22.7447 29.8388 23.0359C29.8352 23.2312 29.7837 23.4105 29.6843 23.5739C29.5884 23.7337 29.4606 23.8615 29.3008 23.9574C29.141 24.0533 28.9652 24.1012 28.7734 24.1012ZM37.4915 13.0909V24H35.8456V13.0909H37.4915ZM40.8199 13.0909V16.9741H39.4988V13.0909H40.8199ZM42.7273 24V15.8182H44.2561V17.1499H44.3573C44.5277 16.6989 44.8065 16.3473 45.1936 16.0952C45.5806 15.8395 46.0441 15.7116 46.5838 15.7116C47.1307 15.7116 47.5888 15.8395 47.9581 16.0952C48.331 16.3509 48.6062 16.7024 48.7838 17.1499H48.869C49.0643 16.7131 49.375 16.3651 49.8012 16.1058C50.2273 15.843 50.7351 15.7116 51.3246 15.7116C52.0668 15.7116 52.6723 15.9442 53.141 16.4094C53.6133 16.8746 53.8495 17.576 53.8495 18.5135V24H52.2568V18.6626C52.2568 18.1087 52.1059 17.7074 51.804 17.4588C51.5022 17.2102 51.1417 17.0859 50.7227 17.0859C50.2042 17.0859 49.8012 17.2457 49.5135 17.5653C49.2259 17.8814 49.0821 18.288 49.0821 18.7852V24H47.4947V18.5614C47.4947 18.1175 47.3562 17.7607 47.0792 17.4908C46.8022 17.2209 46.4418 17.0859 45.9979 17.0859C45.6961 17.0859 45.4173 17.1658 45.1616 17.3256C44.9095 17.4819 44.7053 17.7003 44.549 17.9808C44.3963 18.2614 44.32 18.5863 44.32 18.9556V24H42.7273ZM59.7817 24V13.0909H63.7767C64.5509 13.0909 65.1919 13.2187 65.6997 13.4744C66.2075 13.7266 66.5875 14.0692 66.8396 14.5025C67.0917 14.9322 67.2178 15.4169 67.2178 15.9567C67.2178 16.4112 67.1343 16.7947 66.9674 17.1072C66.8005 17.4162 66.5768 17.6648 66.2963 17.853C66.0193 18.0376 65.7139 18.1726 65.3801 18.2578V18.3643C65.7423 18.3821 66.0956 18.4993 66.4401 18.7159C66.7881 18.929 67.0757 19.2326 67.303 19.6268C67.5303 20.021 67.6439 20.5004 67.6439 21.065C67.6439 21.6225 67.5125 22.1232 67.2498 22.5671C66.9905 23.0075 66.5892 23.3572 66.0459 23.6165C65.5026 23.8722 64.8083 24 63.9632 24H59.7817ZM61.4277 22.5884H63.8034C64.5917 22.5884 65.1564 22.4357 65.4973 22.1303C65.8382 21.8249 66.0086 21.4432 66.0086 20.9851C66.0086 20.6406 65.9216 20.3246 65.7476 20.0369C65.5736 19.7493 65.325 19.5202 65.0019 19.3498C64.6823 19.1793 64.3023 19.0941 63.862 19.0941H61.4277V22.5884ZM61.4277 17.8104H63.6329C64.0022 17.8104 64.3343 17.7393 64.629 17.5973C64.9273 17.4553 65.1635 17.2564 65.3375 17.0007C65.515 16.7415 65.6038 16.4361 65.6038 16.0845C65.6038 15.6335 65.4458 15.2553 65.1297 14.9499C64.8137 14.6445 64.3289 14.4918 63.6755 14.4918H61.4277V17.8104ZM72.8446 24.1651C72.0385 24.1651 71.3442 23.9929 70.7619 23.6484C70.183 23.3004 69.7356 22.8121 69.4195 22.1836C69.107 21.5515 68.9508 20.8111 68.9508 19.9624C68.9508 19.1243 69.107 18.3857 69.4195 17.7464C69.7356 17.1072 70.1759 16.6083 70.7406 16.2496C71.3087 15.891 71.9728 15.7116 72.7327 15.7116C73.1944 15.7116 73.6418 15.788 74.0751 15.9407C74.5083 16.0934 74.8972 16.3331 75.2416 16.6598C75.5861 16.9865 75.8577 17.4109 76.0566 17.9329C76.2555 18.4513 76.3549 19.0817 76.3549 19.8239V20.3885H69.851V19.1953H74.7942C74.7942 18.7763 74.709 18.4052 74.5385 18.082C74.368 17.7553 74.1283 17.4979 73.8194 17.3097C73.514 17.1214 73.1553 17.0273 72.7434 17.0273C72.296 17.0273 71.9053 17.1374 71.5715 17.3576C71.2413 17.5742 70.9856 17.8583 70.8045 18.2099C70.6269 18.5579 70.5381 18.9361 70.5381 19.3445V20.2766C70.5381 20.8235 70.634 21.2887 70.8258 21.6722C71.0211 22.0558 71.2928 22.3487 71.6408 22.5511C71.9888 22.75 72.3954 22.8494 72.8606 22.8494C73.1624 22.8494 73.4376 22.8068 73.6862 22.7216C73.9348 22.6328 74.1496 22.5014 74.3308 22.3274C74.5119 22.1534 74.6504 21.9386 74.7462 21.6829L76.2537 21.9545C76.133 22.3984 75.9163 22.7873 75.6038 23.1211C75.2949 23.4513 74.906 23.7088 74.4373 23.8935C73.9721 24.0746 73.4412 24.1651 72.8446 24.1651ZM84.7369 15.8182L81.77 24H80.0654L77.0931 15.8182H78.803L80.8751 22.1143H80.9603L83.0271 15.8182H84.7369ZM86.6204 24.1012C86.3292 24.1012 86.0789 23.9982 85.8694 23.7923C85.6598 23.5827 85.5551 23.3306 85.5551 23.0359C85.5551 22.7447 85.6598 22.4961 85.8694 22.2901C86.0789 22.0806 86.3292 21.9759 86.6204 21.9759C86.9116 21.9759 87.162 22.0806 87.3715 22.2901C87.581 22.4961 87.6858 22.7447 87.6858 23.0359C87.6858 23.2312 87.636 23.4105 87.5366 23.5739C87.4407 23.7337 87.3129 23.8615 87.1531 23.9574C86.9933 24.0533 86.8157 24.1012 86.6204 24.1012ZM95.0868 13.0909V24H93.4409V13.0909H95.0868ZM98.4152 13.0909V16.9741H97.0942V13.0909H98.4152ZM100.323 24V15.8182H101.851V17.1499H101.953C102.123 16.6989 102.402 16.3473 102.789 16.0952C103.176 15.8395 103.639 15.7116 104.179 15.7116C104.726 15.7116 105.184 15.8395 105.553 16.0952C105.926 16.3509 106.202 16.7024 106.379 17.1499H106.464C106.66 16.7131 106.97 16.3651 107.396 16.1058C107.823 15.843 108.33 15.7116 108.92 15.7116C109.662 15.7116 110.268 15.9442 110.736 16.4094C111.209 16.8746 111.445 17.576 111.445 18.5135V24H109.852V18.6626C109.852 18.1087 109.701 17.7074 109.399 17.4588C109.097 17.2102 108.737 17.0859 108.318 17.0859C107.8 17.0859 107.396 17.2457 107.109 17.5653C106.821 17.8814 106.677 18.288 106.677 18.7852V24H105.09V18.5614C105.09 18.1175 104.952 17.7607 104.675 17.4908C104.398 17.2209 104.037 17.0859 103.593 17.0859C103.291 17.0859 103.013 17.1658 102.757 17.3256C102.505 17.4819 102.301 17.7003 102.144 17.9808C101.992 18.2614 101.915 18.5863 101.915 18.9556V24H100.323ZM118.842 19.142V24H117.249V13.0909H118.821V17.1499H118.922C119.114 16.7095 119.406 16.3597 119.801 16.1005C120.195 15.8413 120.71 15.7116 121.345 15.7116C121.906 15.7116 122.397 15.8271 122.816 16.0579C123.238 16.2887 123.565 16.6332 123.796 17.0913C124.03 17.5458 124.147 18.114 124.147 18.7958V24H122.555V18.9876C122.555 18.3874 122.4 17.9222 122.091 17.592C121.782 17.2582 121.353 17.0913 120.802 17.0913C120.426 17.0913 120.088 17.1712 119.79 17.331C119.495 17.4908 119.263 17.7251 119.092 18.0341C118.925 18.3395 118.842 18.7088 118.842 19.142ZM129.649 24.1651C128.843 24.1651 128.149 23.9929 127.566 23.6484C126.987 23.3004 126.54 22.8121 126.224 22.1836C125.911 21.5515 125.755 20.8111 125.755 19.9624C125.755 19.1243 125.911 18.3857 126.224 17.7464C126.54 17.1072 126.98 16.6083 127.545 16.2496C128.113 15.891 128.777 15.7116 129.537 15.7116C129.999 15.7116 130.446 15.788 130.879 15.9407C131.313 16.0934 131.701 16.3331 132.046 16.6598C132.39 16.9865 132.662 17.4109 132.861 17.9329C133.06 18.4513 133.159 19.0817 133.159 19.8239V20.3885H126.655V19.1953H131.598C131.598 18.7763 131.513 18.4052 131.343 18.082C131.172 17.7553 130.933 17.4979 130.624 17.3097C130.318 17.1214 129.96 17.0273 129.548 17.0273C129.1 17.0273 128.71 17.1374 128.376 17.3576C128.046 17.5742 127.79 17.8583 127.609 18.2099C127.431 18.5579 127.342 18.9361 127.342 19.3445V20.2766C127.342 20.8235 127.438 21.2887 127.63 21.6722C127.825 22.0558 128.097 22.3487 128.445 22.5511C128.793 22.75 129.2 22.8494 129.665 22.8494C129.967 22.8494 130.242 22.8068 130.491 22.7216C130.739 22.6328 130.954 22.5014 131.135 22.3274C131.316 22.1534 131.455 21.9386 131.551 21.6829L133.058 21.9545C132.937 22.3984 132.721 22.7873 132.408 23.1211C132.099 23.4513 131.71 23.7088 131.242 23.8935C130.776 24.0746 130.245 24.1651 129.649 24.1651ZM134.776 24V15.8182H136.316V17.1179H136.401C136.55 16.6776 136.813 16.3313 137.189 16.0792C137.569 15.8235 137.999 15.6957 138.478 15.6957C138.578 15.6957 138.695 15.6992 138.83 15.7063C138.968 15.7134 139.077 15.7223 139.155 15.733V17.2564C139.091 17.2386 138.977 17.2191 138.814 17.1978C138.651 17.1729 138.487 17.1605 138.324 17.1605C137.947 17.1605 137.612 17.2404 137.317 17.4002C137.026 17.5565 136.795 17.7749 136.625 18.0554C136.454 18.3324 136.369 18.6484 136.369 19.0036V24H134.776ZM143.616 24.1651C142.81 24.1651 142.116 23.9929 141.534 23.6484C140.955 23.3004 140.507 22.8121 140.191 22.1836C139.879 21.5515 139.723 20.8111 139.723 19.9624C139.723 19.1243 139.879 18.3857 140.191 17.7464C140.507 17.1072 140.948 16.6083 141.512 16.2496C142.081 15.891 142.745 15.7116 143.505 15.7116C143.966 15.7116 144.414 15.788 144.847 15.9407C145.28 16.0934 145.669 16.3331 146.013 16.6598C146.358 16.9865 146.63 17.4109 146.828 17.9329C147.027 18.4513 147.127 19.0817 147.127 19.8239V20.3885H140.623V19.1953H145.566C145.566 18.7763 145.481 18.4052 145.31 18.082C145.14 17.7553 144.9 17.4979 144.591 17.3097C144.286 17.1214 143.927 17.0273 143.515 17.0273C143.068 17.0273 142.677 17.1374 142.343 17.3576C142.013 17.5742 141.757 17.8583 141.576 18.2099C141.399 18.5579 141.31 18.9361 141.31 19.3445V20.2766C141.31 20.8235 141.406 21.2887 141.598 21.6722C141.793 22.0558 142.065 22.3487 142.413 22.5511C142.761 22.75 143.167 22.8494 143.632 22.8494C143.934 22.8494 144.21 22.8068 144.458 22.7216C144.707 22.6328 144.922 22.5014 145.103 22.3274C145.284 22.1534 145.422 21.9386 145.518 21.6829L147.026 21.9545C146.905 22.3984 146.688 22.7873 146.376 23.1211C146.067 23.4513 145.678 23.7088 145.209 23.8935C144.744 24.0746 144.213 24.1651 143.616 24.1651ZM156.383 15.8182V17.0966H151.914V15.8182H156.383ZM153.112 13.858H154.705V21.5977C154.705 21.9066 154.751 22.1392 154.843 22.2955C154.936 22.4482 155.055 22.5529 155.2 22.6097C155.349 22.663 155.511 22.6896 155.685 22.6896C155.813 22.6896 155.925 22.6808 156.021 22.663C156.117 22.6452 156.191 22.631 156.244 22.6204L156.532 23.9361C156.44 23.9716 156.308 24.0071 156.138 24.0426C155.967 24.0817 155.754 24.103 155.499 24.1065C155.08 24.1136 154.689 24.0391 154.327 23.8828C153.965 23.7266 153.672 23.4851 153.448 23.1584C153.224 22.8317 153.112 22.4215 153.112 21.9279V13.858ZM161.353 24.1651C160.586 24.1651 159.917 23.9893 159.345 23.6378C158.773 23.2862 158.329 22.7944 158.013 22.1623C157.697 21.5302 157.539 20.7915 157.539 19.9464C157.539 19.0977 157.697 18.3555 158.013 17.7198C158.329 17.0842 158.773 16.5906 159.345 16.239C159.917 15.8874 160.586 15.7116 161.353 15.7116C162.12 15.7116 162.79 15.8874 163.361 16.239C163.933 16.5906 164.377 17.0842 164.693 17.7198C165.009 18.3555 165.167 19.0977 165.167 19.9464C165.167 20.7915 165.009 21.5302 164.693 22.1623C164.377 22.7944 163.933 23.2862 163.361 23.6378C162.79 23.9893 162.12 24.1651 161.353 24.1651ZM161.359 22.8281C161.856 22.8281 162.268 22.6967 162.594 22.4339C162.921 22.1712 163.162 21.8214 163.319 21.3846C163.479 20.9478 163.558 20.4666 163.558 19.9411C163.558 19.419 163.479 18.9396 163.319 18.5028C163.162 18.0625 162.921 17.7092 162.594 17.4428C162.268 17.1765 161.856 17.0433 161.359 17.0433C160.858 17.0433 160.442 17.1765 160.112 17.4428C159.785 17.7092 159.542 18.0625 159.382 18.5028C159.226 18.9396 159.148 19.419 159.148 19.9411C159.148 20.4666 159.226 20.9478 159.382 21.3846C159.542 21.8214 159.785 22.1712 160.112 22.4339C160.442 22.6967 160.858 22.8281 161.359 22.8281ZM172.207 19.142V24H170.615V13.0909H172.186V17.1499H172.287C172.479 16.7095 172.772 16.3597 173.166 16.1005C173.56 15.8413 174.075 15.7116 174.711 15.7116C175.272 15.7116 175.762 15.8271 176.181 16.0579C176.604 16.2887 176.93 16.6332 177.161 17.0913C177.396 17.5458 177.513 18.114 177.513 18.7958V24H175.92V18.9876C175.92 18.3874 175.766 17.9222 175.457 17.592C175.148 17.2582 174.718 17.0913 174.168 17.0913C173.791 17.0913 173.454 17.1712 173.155 17.331C172.861 17.4908 172.628 17.7251 172.458 18.0341C172.291 18.3395 172.207 18.7088 172.207 19.142ZM183.014 24.1651C182.208 24.1651 181.514 23.9929 180.932 23.6484C180.353 23.3004 179.905 22.8121 179.589 22.1836C179.277 21.5515 179.121 20.8111 179.121 19.9624C179.121 19.1243 179.277 18.3857 179.589 17.7464C179.905 17.1072 180.346 16.6083 180.91 16.2496C181.478 15.891 182.143 15.7116 182.902 15.7116C183.364 15.7116 183.812 15.788 184.245 15.9407C184.678 16.0934 185.067 16.3331 185.411 16.6598C185.756 16.9865 186.027 17.4109 186.226 17.9329C186.425 18.4513 186.525 19.0817 186.525 19.8239V20.3885H180.021V19.1953H184.964C184.964 18.7763 184.879 18.4052 184.708 18.082C184.538 17.7553 184.298 17.4979 183.989 17.3097C183.684 17.1214 183.325 17.0273 182.913 17.0273C182.466 17.0273 182.075 17.1374 181.741 17.3576C181.411 17.5742 181.155 17.8583 180.974 18.2099C180.797 18.5579 180.708 18.9361 180.708 19.3445V20.2766C180.708 20.8235 180.804 21.2887 180.996 21.6722C181.191 22.0558 181.462 22.3487 181.81 22.5511C182.159 22.75 182.565 22.8494 183.03 22.8494C183.332 22.8494 183.607 22.8068 183.856 22.7216C184.105 22.6328 184.319 22.5014 184.5 22.3274C184.682 22.1534 184.82 21.9386 184.916 21.6829L186.423 21.9545C186.303 22.3984 186.086 22.7873 185.774 23.1211C185.465 23.4513 185.076 23.7088 184.607 23.8935C184.142 24.0746 183.611 24.1651 183.014 24.1651ZM189.734 13.0909V24H188.142V13.0909H189.734ZM191.727 27.0682V15.8182H193.283V17.1445H193.416C193.508 16.9741 193.641 16.777 193.815 16.5533C193.989 16.3295 194.231 16.1342 194.54 15.9673C194.849 15.7969 195.257 15.7116 195.765 15.7116C196.425 15.7116 197.015 15.8786 197.533 16.2124C198.052 16.5462 198.458 17.0273 198.753 17.6559C199.051 18.2844 199.2 19.0408 199.2 19.9251C199.2 20.8093 199.053 21.5675 198.758 22.1996C198.464 22.8281 198.059 23.3129 197.544 23.6538C197.029 23.9911 196.441 24.1598 195.781 24.1598C195.284 24.1598 194.877 24.0763 194.561 23.9094C194.248 23.7425 194.003 23.5472 193.826 23.3235C193.648 23.0998 193.512 22.9009 193.416 22.7269H193.32V27.0682H191.727ZM193.288 19.9091C193.288 20.4844 193.371 20.9886 193.538 21.4219C193.705 21.8551 193.947 22.1942 194.263 22.4393C194.579 22.6808 194.966 22.8015 195.424 22.8015C195.9 22.8015 196.297 22.6754 196.617 22.4233C196.937 22.1676 197.178 21.8214 197.341 21.3846C197.508 20.9478 197.592 20.456 197.592 19.9091C197.592 19.3693 197.51 18.8846 197.347 18.4549C197.187 18.0252 196.946 17.6861 196.622 17.4375C196.303 17.1889 195.903 17.0646 195.424 17.0646C194.962 17.0646 194.572 17.1836 194.252 17.4215C193.936 17.6594 193.696 17.9915 193.533 18.4176C193.37 18.8437 193.288 19.3409 193.288 19.9091ZM205.661 27.0682C205.423 27.0682 205.207 27.0487 205.012 27.0096C204.816 26.9741 204.671 26.935 204.575 26.8924L204.958 25.5874C205.249 25.6655 205.509 25.6992 205.736 25.6886C205.963 25.6779 206.164 25.5927 206.338 25.4329C206.515 25.2731 206.672 25.0121 206.807 24.6499L207.004 24.1065L204.01 15.8182H205.715L207.787 22.1676H207.872L209.944 15.8182H211.654L208.282 25.092C208.126 25.5181 207.927 25.8786 207.686 26.1733C207.444 26.4716 207.156 26.6953 206.823 26.8445C206.489 26.9936 206.102 27.0682 205.661 27.0682ZM216.169 24.1651C215.402 24.1651 214.732 23.9893 214.161 23.6378C213.589 23.2862 213.145 22.7944 212.829 22.1623C212.513 21.5302 212.355 20.7915 212.355 19.9464C212.355 19.0977 212.513 18.3555 212.829 17.7198C213.145 17.0842 213.589 16.5906 214.161 16.239C214.732 15.8874 215.402 15.7116 216.169 15.7116C216.936 15.7116 217.605 15.8874 218.177 16.239C218.749 16.5906 219.193 17.0842 219.509 17.7198C219.825 18.3555 219.983 19.0977 219.983 19.9464C219.983 20.7915 219.825 21.5302 219.509 22.1623C219.193 22.7944 218.749 23.2862 218.177 23.6378C217.605 23.9893 216.936 24.1651 216.169 24.1651ZM216.174 22.8281C216.671 22.8281 217.083 22.6967 217.41 22.4339C217.737 22.1712 217.978 21.8214 218.134 21.3846C218.294 20.9478 218.374 20.4666 218.374 19.9411C218.374 19.419 218.294 18.9396 218.134 18.5028C217.978 18.0625 217.737 17.7092 217.41 17.4428C217.083 17.1765 216.671 17.0433 216.174 17.0433C215.673 17.0433 215.258 17.1765 214.928 17.4428C214.601 17.7092 214.358 18.0625 214.198 18.5028C214.042 18.9396 213.964 19.419 213.964 19.9411C213.964 20.4666 214.042 20.9478 214.198 21.3846C214.358 21.8214 214.601 22.1712 214.928 22.4339C215.258 22.6967 215.673 22.8281 216.174 22.8281ZM226.793 20.6069V15.8182H228.391V24H226.825V22.5831H226.74C226.552 23.0199 226.25 23.3839 225.835 23.6751C225.423 23.9627 224.91 24.1065 224.295 24.1065C223.77 24.1065 223.304 23.9911 222.9 23.7603C222.498 23.5259 222.182 23.1797 221.951 22.7216C221.724 22.2635 221.611 21.6971 221.611 21.0224V15.8182H223.203V20.8306C223.203 21.3881 223.358 21.832 223.667 22.1623C223.976 22.4925 224.377 22.6577 224.87 22.6577C225.169 22.6577 225.465 22.5831 225.76 22.4339C226.058 22.2848 226.305 22.0593 226.5 21.7575C226.699 21.4556 226.797 21.0721 226.793 20.6069ZM16.5011 53.2386C15.8512 53.2386 15.2919 53.1534 14.8232 52.983C14.358 52.8125 13.978 52.587 13.6832 52.3065C13.3885 52.0259 13.1683 51.7188 13.0227 51.3849L14.3917 50.8203C14.4876 50.9766 14.6154 51.1417 14.7752 51.3157C14.9386 51.4933 15.1587 51.6442 15.4357 51.7685C15.7163 51.8928 16.0767 51.9549 16.517 51.9549C17.1207 51.9549 17.6197 51.8075 18.0138 51.5128C18.408 51.2216 18.6051 50.7564 18.6051 50.1172V48.5085H18.5039C18.408 48.6825 18.2695 48.8761 18.0884 49.0891C17.9109 49.3022 17.6658 49.4869 17.3533 49.6431C17.0408 49.7994 16.6342 49.8775 16.1335 49.8775C15.4872 49.8775 14.9048 49.7266 14.3864 49.4247C13.8714 49.1193 13.4631 48.6701 13.1612 48.0771C12.8629 47.4805 12.7138 46.7472 12.7138 45.8771C12.7138 45.0071 12.8612 44.2614 13.1559 43.6399C13.4542 43.0185 13.8626 42.5426 14.381 42.2124C14.8995 41.8786 15.4872 41.7116 16.1442 41.7116C16.652 41.7116 17.0621 41.7969 17.3746 41.9673C17.6871 42.1342 17.9304 42.3295 18.1044 42.5533C18.282 42.777 18.4187 42.9741 18.5146 43.1445H18.6317V41.8182H20.1925V50.1811C20.1925 50.8842 20.0291 51.4613 19.7024 51.9123C19.3757 52.3633 18.9336 52.6971 18.3761 52.9137C17.8221 53.1303 17.1971 53.2386 16.5011 53.2386ZM16.4851 48.5565C16.9432 48.5565 17.3303 48.4499 17.6463 48.2369C17.9659 48.0202 18.2074 47.7113 18.3707 47.31C18.5376 46.9052 18.6211 46.4205 18.6211 45.8558C18.6211 45.3054 18.5394 44.8207 18.3761 44.4016C18.2127 43.9826 17.973 43.6559 17.657 43.4215C17.3409 43.1836 16.9503 43.0646 16.4851 43.0646C16.0057 43.0646 15.6062 43.1889 15.2866 43.4375C14.967 43.6825 14.7255 44.0163 14.5621 44.4389C14.4023 44.8615 14.3224 45.3338 14.3224 45.8558C14.3224 46.392 14.4041 46.8626 14.5675 47.2674C14.7308 47.6722 14.9723 47.9883 15.2919 48.2156C15.6151 48.4428 16.0128 48.5565 16.4851 48.5565ZM25.7048 50.1651C24.8987 50.1651 24.2044 49.9929 23.622 49.6484C23.0432 49.3004 22.5957 48.8121 22.2797 48.1836C21.9672 47.5515 21.8109 46.8111 21.8109 45.9624C21.8109 45.1243 21.9672 44.3857 22.2797 43.7464C22.5957 43.1072 23.0361 42.6083 23.6007 42.2496C24.1689 41.891 24.833 41.7116 25.5929 41.7116C26.0545 41.7116 26.502 41.788 26.9352 41.9407C27.3685 42.0934 27.7573 42.3331 28.1018 42.6598C28.4462 42.9865 28.7179 43.4109 28.9168 43.9329C29.1156 44.4513 29.2151 45.0817 29.2151 45.8239V46.3885H22.7112V45.1953H27.6543C27.6543 44.7763 27.5691 44.4052 27.3987 44.082C27.2282 43.7553 26.9885 43.4979 26.6795 43.3097C26.3741 43.1214 26.0155 43.0273 25.6036 43.0273C25.1561 43.0273 24.7655 43.1374 24.4317 43.3576C24.1014 43.5742 23.8457 43.8583 23.6646 44.2099C23.4871 44.5579 23.3983 44.9361 23.3983 45.3445V46.2766C23.3983 46.8235 23.4942 47.2887 23.6859 47.6722C23.8813 48.0558 24.1529 48.3487 24.5009 48.5511C24.8489 48.75 25.2555 48.8494 25.7207 48.8494C26.0226 48.8494 26.2978 48.8068 26.5464 48.7216C26.795 48.6328 27.0098 48.5014 27.1909 48.3274C27.372 48.1534 27.5105 47.9386 27.6064 47.6829L29.1139 47.9545C28.9931 48.3984 28.7765 48.7873 28.464 49.1211C28.155 49.4513 27.7662 49.7088 27.2974 49.8935C26.8322 50.0746 26.3013 50.1651 25.7048 50.1651ZM34.6514 41.8182V43.0966H30.1823V41.8182H34.6514ZM31.3808 39.858H32.9735V47.5977C32.9735 47.9066 33.0197 48.1392 33.112 48.2955C33.2044 48.4482 33.3233 48.5529 33.4689 48.6097C33.6181 48.663 33.7796 48.6896 33.9536 48.6896C34.0815 48.6896 34.1933 48.6808 34.2892 48.663C34.3851 48.6452 34.4597 48.631 34.5129 48.6204L34.8006 49.9361C34.7083 49.9716 34.5769 50.0071 34.4064 50.0426C34.236 50.0817 34.0229 50.103 33.7672 50.1065C33.3482 50.1136 32.9575 50.0391 32.5953 49.8828C32.2331 49.7266 31.9401 49.4851 31.7164 49.1584C31.4927 48.8317 31.3808 48.4215 31.3808 47.9279V39.858ZM43.9022 41.8182V43.0966H39.4331V41.8182H43.9022ZM40.6316 39.858H42.2243V47.5977C42.2243 47.9066 42.2705 48.1392 42.3628 48.2955C42.4551 48.4482 42.5741 48.5529 42.7197 48.6097C42.8688 48.663 43.0304 48.6896 43.2044 48.6896C43.3323 48.6896 43.4441 48.6808 43.54 48.663C43.6359 48.6452 43.7105 48.631 43.7637 48.6204L44.0514 49.9361C43.959 49.9716 43.8276 50.0071 43.6572 50.0426C43.4867 50.0817 43.2737 50.103 43.018 50.1065C42.599 50.1136 42.2083 50.0391 41.8461 49.8828C41.4839 49.7266 41.1909 49.4851 40.9672 49.1584C40.7435 48.8317 40.6316 48.4215 40.6316 47.9279V39.858ZM47.2825 45.142V50H45.6898V39.0909H47.2612V43.1499H47.3624C47.5542 42.7095 47.8471 42.3597 48.2413 42.1005C48.6355 41.8413 49.1504 41.7116 49.786 41.7116C50.3471 41.7116 50.8372 41.8271 51.2562 42.0579C51.6788 42.2887 52.0055 42.6332 52.2363 43.0913C52.4707 43.5458 52.5879 44.114 52.5879 44.7958V50H50.9952V44.9876C50.9952 44.3874 50.8407 43.9222 50.5318 43.592C50.2228 43.2582 49.7931 43.0913 49.2427 43.0913C48.8663 43.0913 48.5289 43.1712 48.2306 43.331C47.9359 43.4908 47.7033 43.7251 47.5328 44.0341C47.3659 44.3395 47.2825 44.7088 47.2825 45.142ZM58.0895 50.1651C57.2834 50.1651 56.5892 49.9929 56.0068 49.6484C55.4279 49.3004 54.9805 48.8121 54.6645 48.1836C54.352 47.5515 54.1957 46.8111 54.1957 45.9624C54.1957 45.1243 54.352 44.3857 54.6645 43.7464C54.9805 43.1072 55.4208 42.6083 55.9855 42.2496C56.5537 41.891 57.2177 41.7116 57.9777 41.7116C58.4393 41.7116 58.8868 41.788 59.32 41.9407C59.7532 42.0934 60.1421 42.3331 60.4865 42.6598C60.831 42.9865 61.1027 43.4109 61.3015 43.9329C61.5004 44.4513 61.5998 45.0817 61.5998 45.8239V46.3885H55.0959V45.1953H60.0391C60.0391 44.7763 59.9539 44.4052 59.7834 44.082C59.613 43.7553 59.3733 43.4979 59.0643 43.3097C58.7589 43.1214 58.4002 43.0273 57.9883 43.0273C57.5409 43.0273 57.1502 43.1374 56.8164 43.3576C56.4862 43.5742 56.2305 43.8583 56.0494 44.2099C55.8718 44.5579 55.7831 44.9361 55.7831 45.3445V46.2766C55.7831 46.8235 55.8789 47.2887 56.0707 47.6722C56.266 48.0558 56.5377 48.3487 56.8857 48.5511C57.2337 48.75 57.6403 48.8494 58.1055 48.8494C58.4073 48.8494 58.6826 48.8068 58.9311 48.7216C59.1797 48.6328 59.3946 48.5014 59.5757 48.3274C59.7568 48.1534 59.8953 47.9386 59.9912 47.6829L61.4986 47.9545C61.3779 48.3984 61.1613 48.7873 60.8488 49.1211C60.5398 49.4513 60.151 49.7088 59.6822 49.8935C59.217 50.0746 58.6861 50.1651 58.0895 50.1651ZM67.1645 50V39.0909H68.7572V43.1445H68.8531C68.9454 42.9741 69.0786 42.777 69.2526 42.5533C69.4266 42.3295 69.6681 42.1342 69.977 41.9673C70.286 41.7969 70.6944 41.7116 71.2022 41.7116C71.8627 41.7116 72.4522 41.8786 72.9706 42.2124C73.4891 42.5462 73.8957 43.0273 74.1904 43.6559C74.4887 44.2844 74.6379 45.0408 74.6379 45.9251C74.6379 46.8093 74.4905 47.5675 74.1958 48.1996C73.901 48.8281 73.4962 49.3129 72.9813 49.6538C72.4664 49.9911 71.8787 50.1598 71.2181 50.1598C70.721 50.1598 70.3144 50.0763 69.9983 49.9094C69.6858 49.7425 69.4408 49.5472 69.2632 49.3235C69.0857 49.0998 68.949 48.9009 68.8531 48.7269H68.7199V50H67.1645ZM68.7252 45.9091C68.7252 46.4844 68.8087 46.9886 68.9756 47.4219C69.1425 47.8551 69.384 48.1942 69.7 48.4393C70.0161 48.6808 70.4032 48.8015 70.8613 48.8015C71.3371 48.8015 71.7348 48.6754 72.0544 48.4233C72.374 48.1676 72.6155 47.8214 72.7789 47.3846C72.9458 46.9478 73.0292 46.456 73.0292 45.9091C73.0292 45.3693 72.9475 44.8846 72.7842 44.4549C72.6244 44.0252 72.3829 43.6861 72.0598 43.4375C71.7402 43.1889 71.3407 43.0646 70.8613 43.0646C70.3996 43.0646 70.009 43.1836 69.6894 43.4215C69.3733 43.6594 69.1336 43.9915 68.9703 44.4176C68.8069 44.8437 68.7252 45.3409 68.7252 45.9091ZM79.8026 50.1651C78.9965 50.1651 78.3023 49.9929 77.7199 49.6484C77.141 49.3004 76.6936 48.8121 76.3775 48.1836C76.065 47.5515 75.9088 46.8111 75.9088 45.9624C75.9088 45.1243 76.065 44.3857 76.3775 43.7464C76.6936 43.1072 77.1339 42.6083 77.6986 42.2496C78.2667 41.891 78.9308 41.7116 79.6908 41.7116C80.1524 41.7116 80.5998 41.788 81.0331 41.9407C81.4663 42.0934 81.8552 42.3331 82.1996 42.6598C82.5441 42.9865 82.8158 43.4109 83.0146 43.9329C83.2135 44.4513 83.3129 45.0817 83.3129 45.8239V46.3885H76.809V45.1953H81.7522C81.7522 44.7763 81.667 44.4052 81.4965 44.082C81.326 43.7553 81.0863 43.4979 80.7774 43.3097C80.472 43.1214 80.1133 43.0273 79.7014 43.0273C79.254 43.0273 78.8633 43.1374 78.5295 43.3576C78.1993 43.5742 77.9436 43.8583 77.7625 44.2099C77.5849 44.5579 77.4961 44.9361 77.4961 45.3445V46.2766C77.4961 46.8235 77.592 47.2887 77.7838 47.6722C77.9791 48.0558 78.2508 48.3487 78.5988 48.5511C78.9468 48.75 79.3534 48.8494 79.8186 48.8494C80.1204 48.8494 80.3957 48.8068 80.6442 48.7216C80.8928 48.6328 81.1077 48.5014 81.2888 48.3274C81.4699 48.1534 81.6084 47.9386 81.7042 47.6829L83.2117 47.9545C83.091 48.3984 82.8743 48.7873 82.5618 49.1211C82.2529 49.4513 81.864 49.7088 81.3953 49.8935C80.9301 50.0746 80.3992 50.1651 79.8026 50.1651ZM91.0611 43.8157L89.6175 44.0714C89.5572 43.8867 89.4613 43.7109 89.3299 43.544C89.2021 43.3771 89.0281 43.2404 88.8079 43.1339C88.5877 43.0273 88.3125 42.9741 87.9822 42.9741C87.5313 42.9741 87.1548 43.0753 86.853 43.2777C86.5511 43.4766 86.4002 43.734 86.4002 44.0501C86.4002 44.3235 86.5014 44.5437 86.7038 44.7106C86.9063 44.8775 87.233 45.0142 87.6839 45.1207L88.9837 45.419C89.7365 45.593 90.2976 45.8612 90.6669 46.2234C91.0362 46.5856 91.2209 47.0561 91.2209 47.6349C91.2209 48.125 91.0788 48.5618 90.7947 48.9453C90.5142 49.3253 90.1218 49.6236 89.6175 49.8402C89.1168 50.0568 88.5362 50.1651 87.8757 50.1651C86.9595 50.1651 86.212 49.9698 85.6332 49.5792C85.0543 49.185 84.6992 48.6257 84.5678 47.9013L86.1072 47.6669C86.2031 48.0682 86.4002 48.3718 86.6985 48.5778C86.9968 48.7802 87.3857 48.8814 87.8651 48.8814C88.3871 48.8814 88.8043 48.7731 89.1168 48.5565C89.4293 48.3363 89.5856 48.0682 89.5856 47.7521C89.5856 47.4964 89.4897 47.2816 89.2979 47.1076C89.1097 46.9336 88.8203 46.8022 88.4297 46.7134L87.0447 46.4098C86.2813 46.2358 85.7166 45.9588 85.3509 45.5788C84.9886 45.1989 84.8075 44.7177 84.8075 44.1353C84.8075 43.6523 84.9425 43.2298 85.2124 42.8675C85.4822 42.5053 85.8551 42.223 86.331 42.0206C86.8068 41.8146 87.3519 41.7116 87.9663 41.7116C88.8505 41.7116 89.5465 41.9034 90.0543 42.2869C90.5621 42.6669 90.8977 43.1765 91.0611 43.8157ZM96.6413 41.8182V43.0966H92.1722V41.8182H96.6413ZM93.3707 39.858H94.9634V47.5977C94.9634 47.9066 95.0095 48.1392 95.1019 48.2955C95.1942 48.4482 95.3132 48.5529 95.4588 48.6097C95.6079 48.663 95.7695 48.6896 95.9435 48.6896C96.0713 48.6896 96.1832 48.6808 96.2791 48.663C96.3749 48.6452 96.4495 48.631 96.5028 48.6204L96.7904 49.9361C96.6981 49.9716 96.5667 50.0071 96.3963 50.0426C96.2258 50.0817 96.0127 50.103 95.757 50.1065C95.338 50.1136 94.9474 50.0391 94.5852 49.8828C94.223 49.7266 93.93 49.4851 93.7063 49.1584C93.4825 48.8317 93.3707 48.4215 93.3707 47.9279V39.858ZM105.519 50.1651C104.752 50.1651 104.083 49.9893 103.511 49.6378C102.939 49.2862 102.495 48.7944 102.179 48.1623C101.863 47.5302 101.705 46.7915 101.705 45.9464C101.705 45.0977 101.863 44.3555 102.179 43.7198C102.495 43.0842 102.939 42.5906 103.511 42.239C104.083 41.8874 104.752 41.7116 105.519 41.7116C106.286 41.7116 106.956 41.8874 107.527 42.239C108.099 42.5906 108.543 43.0842 108.859 43.7198C109.175 44.3555 109.333 45.0977 109.333 45.9464C109.333 46.7915 109.175 47.5302 108.859 48.1623C108.543 48.7944 108.099 49.2862 107.527 49.6378C106.956 49.9893 106.286 50.1651 105.519 50.1651ZM105.525 48.8281C106.022 48.8281 106.434 48.6967 106.76 48.4339C107.087 48.1712 107.329 47.8214 107.485 47.3846C107.645 46.9478 107.724 46.4666 107.724 45.9411C107.724 45.419 107.645 44.9396 107.485 44.5028C107.329 44.0625 107.087 43.7092 106.76 43.4428C106.434 43.1765 106.022 43.0433 105.525 43.0433C105.024 43.0433 104.608 43.1765 104.278 43.4428C103.951 43.7092 103.708 44.0625 103.548 44.5028C103.392 44.9396 103.314 45.419 103.314 45.9411C103.314 46.4666 103.392 46.9478 103.548 47.3846C103.708 47.8214 103.951 48.1712 104.278 48.4339C104.608 48.6967 105.024 48.8281 105.525 48.8281ZM116.144 46.6069V41.8182H117.742V50H116.176V48.5831H116.091C115.902 49.0199 115.6 49.3839 115.185 49.6751C114.773 49.9627 114.26 50.1065 113.646 50.1065C113.12 50.1065 112.655 49.9911 112.25 49.7603C111.849 49.5259 111.533 49.1797 111.302 48.7216C111.075 48.2635 110.961 47.6971 110.961 47.0224V41.8182H112.554V46.8306C112.554 47.3881 112.708 47.832 113.017 48.1623C113.326 48.4925 113.727 48.6577 114.221 48.6577C114.519 48.6577 114.816 48.5831 115.11 48.4339C115.409 48.2848 115.656 48.0593 115.851 47.7575C116.05 47.4556 116.147 47.0721 116.144 46.6069ZM123.551 41.8182V43.0966H119.082V41.8182H123.551ZM120.28 39.858H121.873V47.5977C121.873 47.9066 121.919 48.1392 122.012 48.2955C122.104 48.4482 122.223 48.5529 122.369 48.6097C122.518 48.663 122.679 48.6896 122.853 48.6896C122.981 48.6896 123.093 48.6808 123.189 48.663C123.285 48.6452 123.359 48.631 123.413 48.6204L123.7 49.9361C123.608 49.9716 123.476 50.0071 123.306 50.0426C123.136 50.0817 122.922 50.103 122.667 50.1065C122.248 50.1136 121.857 50.0391 121.495 49.8828C121.133 49.7266 120.84 49.4851 120.616 49.1584C120.392 48.8317 120.28 48.4215 120.28 47.9279V39.858ZM132.429 50.1651C131.662 50.1651 130.993 49.9893 130.421 49.6378C129.849 49.2862 129.405 48.7944 129.089 48.1623C128.773 47.5302 128.615 46.7915 128.615 45.9464C128.615 45.0977 128.773 44.3555 129.089 43.7198C129.405 43.0842 129.849 42.5906 130.421 42.239C130.993 41.8874 131.662 41.7116 132.429 41.7116C133.196 41.7116 133.865 41.8874 134.437 42.239C135.009 42.5906 135.453 43.0842 135.769 43.7198C136.085 44.3555 136.243 45.0977 136.243 45.9464C136.243 46.7915 136.085 47.5302 135.769 48.1623C135.453 48.7944 135.009 49.2862 134.437 49.6378C133.865 49.9893 133.196 50.1651 132.429 50.1651ZM132.434 48.8281C132.931 48.8281 133.343 48.6967 133.67 48.4339C133.997 48.1712 134.238 47.8214 134.395 47.3846C134.554 46.9478 134.634 46.4666 134.634 45.9411C134.634 45.419 134.554 44.9396 134.395 44.5028C134.238 44.0625 133.997 43.7092 133.67 43.4428C133.343 43.1765 132.931 43.0433 132.434 43.0433C131.934 43.0433 131.518 43.1765 131.188 43.4428C130.861 43.7092 130.618 44.0625 130.458 44.5028C130.302 44.9396 130.224 45.419 130.224 45.9411C130.224 46.4666 130.302 46.9478 130.458 47.3846C130.618 47.8214 130.861 48.1712 131.188 48.4339C131.518 48.6967 131.934 48.8281 132.434 48.8281ZM141.764 41.8182V43.0966H137.141V41.8182H141.764ZM138.409 50V40.87C138.409 40.3587 138.521 39.9343 138.744 39.5969C138.968 39.256 139.264 39.0021 139.634 38.8352C140.003 38.6648 140.404 38.5795 140.838 38.5795C141.157 38.5795 141.431 38.6062 141.658 38.6594C141.885 38.7092 142.054 38.7553 142.164 38.7979L141.791 40.087C141.717 40.0657 141.621 40.0408 141.503 40.0124C141.386 39.9805 141.244 39.9645 141.077 39.9645C140.69 39.9645 140.413 40.0604 140.246 40.2521C140.083 40.4439 140.001 40.7209 140.001 41.0831V50H138.409ZM147.205 50V39.0909H151.2C151.975 39.0909 152.616 39.2187 153.123 39.4744C153.631 39.7266 154.011 40.0692 154.263 40.5025C154.515 40.9322 154.641 41.4169 154.641 41.9567C154.641 42.4112 154.558 42.7947 154.391 43.1072C154.224 43.4162 154 43.6648 153.72 43.853C153.443 44.0376 153.138 44.1726 152.804 44.2578V44.3643C153.166 44.3821 153.519 44.4993 153.864 44.7159C154.212 44.929 154.499 45.2326 154.727 45.6268C154.954 46.021 155.068 46.5004 155.068 47.065C155.068 47.6225 154.936 48.1232 154.673 48.5671C154.414 49.0075 154.013 49.3572 153.47 49.6165C152.926 49.8722 152.232 50 151.387 50H147.205ZM148.851 48.5884H151.227C152.015 48.5884 152.58 48.4357 152.921 48.1303C153.262 47.8249 153.432 47.4432 153.432 46.9851C153.432 46.6406 153.345 46.3246 153.171 46.0369C152.997 45.7493 152.749 45.5202 152.426 45.3498C152.106 45.1793 151.726 45.0941 151.286 45.0941H148.851V48.5884ZM148.851 43.8104H151.057C151.426 43.8104 151.758 43.7393 152.053 43.5973C152.351 43.4553 152.587 43.2564 152.761 43.0007C152.939 42.7415 153.027 42.4361 153.027 42.0845C153.027 41.6335 152.869 41.2553 152.553 40.9499C152.237 40.6445 151.753 40.4918 151.099 40.4918H148.851V43.8104ZM156.742 50V41.8182H158.281V43.1179H158.367C158.516 42.6776 158.779 42.3313 159.155 42.0792C159.535 41.8235 159.965 41.6957 160.444 41.6957C160.543 41.6957 160.661 41.6992 160.796 41.7063C160.934 41.7134 161.042 41.7223 161.121 41.733V43.2564C161.057 43.2386 160.943 43.2191 160.78 43.1978C160.616 43.1729 160.453 43.1605 160.29 43.1605C159.913 43.1605 159.578 43.2404 159.283 43.4002C158.992 43.5565 158.761 43.7749 158.59 44.0554C158.42 44.3324 158.335 44.6484 158.335 45.0036V50H156.742ZM165.582 50.1651C164.776 50.1651 164.082 49.9929 163.499 49.6484C162.921 49.3004 162.473 48.8121 162.157 48.1836C161.845 47.5515 161.688 46.8111 161.688 45.9624C161.688 45.1243 161.845 44.3857 162.157 43.7464C162.473 43.1072 162.913 42.6083 163.478 42.2496C164.046 41.891 164.71 41.7116 165.47 41.7116C165.932 41.7116 166.379 41.788 166.813 41.9407C167.246 42.0934 167.635 42.3331 167.979 42.6598C168.324 42.9865 168.595 43.4109 168.794 43.9329C168.993 44.4513 169.092 45.0817 169.092 45.8239V46.3885H162.588V45.1953H167.532C167.532 44.7763 167.446 44.4052 167.276 44.082C167.106 43.7553 166.866 43.4979 166.557 43.3097C166.251 43.1214 165.893 43.0273 165.481 43.0273C165.033 43.0273 164.643 43.1374 164.309 43.3576C163.979 43.5742 163.723 43.8583 163.542 44.2099C163.364 44.5579 163.276 44.9361 163.276 45.3445V46.2766C163.276 46.8235 163.372 47.2887 163.563 47.6722C163.759 48.0558 164.03 48.3487 164.378 48.5511C164.726 48.75 165.133 48.8494 165.598 48.8494C165.9 48.8494 166.175 48.8068 166.424 48.7216C166.672 48.6328 166.887 48.5014 167.068 48.3274C167.249 48.1534 167.388 47.9386 167.484 47.6829L168.991 47.9545C168.87 48.3984 168.654 48.7873 168.341 49.1211C168.032 49.4513 167.644 49.7088 167.175 49.8935C166.71 50.0746 166.179 50.1651 165.582 50.1651ZM173.091 50.1811C172.572 50.1811 172.103 50.0852 171.684 49.8935C171.265 49.6982 170.933 49.4158 170.688 49.0465C170.447 48.6772 170.326 48.2244 170.326 47.6882C170.326 47.2266 170.415 46.8466 170.592 46.5483C170.77 46.25 171.01 46.0138 171.311 45.8398C171.613 45.6658 171.951 45.5344 172.324 45.4457C172.696 45.3569 173.076 45.2894 173.463 45.2433C173.954 45.1864 174.351 45.1403 174.657 45.1048C174.962 45.0657 175.184 45.0036 175.322 44.9183C175.461 44.8331 175.53 44.6946 175.53 44.5028V44.4656C175.53 44.0004 175.399 43.6399 175.136 43.3842C174.877 43.1286 174.49 43.0007 173.975 43.0007C173.439 43.0007 173.016 43.1197 172.707 43.3576C172.402 43.592 172.19 43.853 172.073 44.1406L170.576 43.7997C170.754 43.3026 171.013 42.9013 171.354 42.5959C171.699 42.2869 172.094 42.0632 172.542 41.9247C172.989 41.7827 173.46 41.7116 173.954 41.7116C174.28 41.7116 174.626 41.7507 174.992 41.8288C175.362 41.9034 175.706 42.0419 176.026 42.2443C176.349 42.4467 176.613 42.7362 176.819 43.1126C177.025 43.4854 177.128 43.9702 177.128 44.5668V50H175.573V48.8814H175.509C175.406 49.0874 175.251 49.2898 175.045 49.4886C174.84 49.6875 174.575 49.8526 174.252 49.984C173.929 50.1154 173.542 50.1811 173.091 50.1811ZM173.437 48.9027C173.877 48.9027 174.254 48.8157 174.566 48.6417C174.882 48.4677 175.122 48.2404 175.285 47.9599C175.452 47.6758 175.536 47.3722 175.536 47.049V45.9943C175.479 46.0511 175.369 46.1044 175.205 46.1541C175.045 46.2003 174.863 46.2411 174.657 46.2766C174.451 46.3086 174.25 46.3388 174.055 46.3672C173.859 46.392 173.696 46.4134 173.565 46.4311C173.256 46.4702 172.973 46.5359 172.718 46.6282C172.466 46.7205 172.263 46.8537 172.11 47.0277C171.961 47.1982 171.887 47.4254 171.887 47.7095C171.887 48.1037 172.032 48.402 172.324 48.6044C172.615 48.8033 172.986 48.9027 173.437 48.9027ZM182.546 50.1651C181.754 50.1651 181.072 49.9858 180.5 49.6271C179.932 49.2649 179.496 48.766 179.19 48.1303C178.885 47.4947 178.732 46.7667 178.732 45.9464C178.732 45.1154 178.888 44.3821 179.201 43.7464C179.513 43.1072 179.954 42.6083 180.522 42.2496C181.09 41.891 181.759 41.7116 182.53 41.7116C183.151 41.7116 183.705 41.8271 184.192 42.0579C184.678 42.2852 185.071 42.6048 185.369 43.0167C185.671 43.4286 185.85 43.9098 185.907 44.4602H184.357C184.272 44.0767 184.076 43.7464 183.771 43.4695C183.469 43.1925 183.064 43.054 182.557 43.054C182.113 43.054 181.724 43.1712 181.39 43.4055C181.06 43.6364 180.802 43.9666 180.618 44.3963C180.433 44.8224 180.341 45.3267 180.341 45.9091C180.341 46.5057 180.431 47.0206 180.612 47.4538C180.793 47.8871 181.049 48.2227 181.379 48.4606C181.713 48.6985 182.106 48.8175 182.557 48.8175C182.858 48.8175 183.132 48.7624 183.377 48.6523C183.625 48.5387 183.833 48.3771 184 48.1676C184.171 47.9581 184.29 47.706 184.357 47.4112H185.907C185.85 47.9403 185.678 48.4126 185.39 48.8281C185.103 49.2436 184.717 49.5703 184.235 49.8082C183.755 50.0462 183.192 50.1651 182.546 50.1651ZM189.053 45.142V50H187.46V39.0909H189.032V43.1499H189.133C189.325 42.7095 189.618 42.3597 190.012 42.1005C190.406 41.8413 190.921 41.7116 191.557 41.7116C192.118 41.7116 192.608 41.8271 193.027 42.0579C193.449 42.2887 193.776 42.6332 194.007 43.0913C194.241 43.5458 194.358 44.114 194.358 44.7958V50H192.766V44.9876C192.766 44.3874 192.611 43.9222 192.302 43.592C191.993 43.2582 191.564 43.0913 191.013 43.0913C190.637 43.0913 190.299 43.1712 190.001 43.331C189.706 43.4908 189.474 43.7251 189.303 44.0341C189.136 44.3395 189.053 44.7088 189.053 45.142ZM197.383 50.1012C197.092 50.1012 196.842 49.9982 196.632 49.7923C196.423 49.5827 196.318 49.3306 196.318 49.0359C196.318 48.7447 196.423 48.4961 196.632 48.2901C196.842 48.0806 197.092 47.9759 197.383 47.9759C197.674 47.9759 197.925 48.0806 198.134 48.2901C198.344 48.4961 198.448 48.7447 198.448 49.0359C198.448 49.2312 198.399 49.4105 198.299 49.5739C198.203 49.7337 198.076 49.8615 197.916 49.9574C197.756 50.0533 197.578 50.1012 197.383 50.1012Z" fill="white"/>
<path d="M270.888 63.1846C265.688 63.9846 260.554 61.1212 258.888 59.2879C260.605 55.1914 250 45.2419 257 45.2415C258.618 45.2415 260.001 41.0014 265.888 44.1846C265.909 45.4714 265.888 49.9258 265.888 50.6842C265.888 61.1842 271.888 62.5813 270.888 63.1846Z" fill="#A940FF"/>
</svg>
